<?xml version="1.0" standalone="no"?>
<!DOCTYPE svg PUBLIC "-//W3C//DTD SVG 20010904//EN"
 "http://www.w3.org/TR/2001/REC-SVG-20010904/DTD/svg10.dtd">
<svg version="1.0" xmlns="http://www.w3.org/2000/svg"
 width="441.000000pt" height="441.000000pt" viewBox="0 0 441.000000 441.000000"
 preserveAspectRatio="xMidYMid meet">

<g transform="translate(0.000000,441.000000) scale(0.100000,-0.100000)"
fill="#000000" stroke="none">
<path d="M1430 2608 c-410 -693 -749 -1268 -753 -1277 -5 -9 0 -6 11 6 430
487 1767 2038 1766 2048 -1 12 -230 410 -269 467 -9 14 -137 -197 -755 -1244z"/>
<path d="M1656 1975 c-599 -503 -1094 -920 -1100 -926 -6 -7 5 -3 24 9 19 11
568 329 1220 707 652 378 1189 690 1193 695 8 7 -231 429 -243 429 -3 0 -495
-411 -1094 -914z"/>
<path d="M1842 1413 c-776 -322 -1411 -588 -1409 -590 3 -3 3098 725 3103 730
6 6 -257 442 -268 444 -7 2 -649 -261 -1426 -584z"/>
<path d="M2025 877 l-1700 -222 937 -3 c516 -1 1359 -1 1873 0 l934 3 -137
220 c-135 215 -138 220 -172 222 -19 0 -800 -99 -1735 -220z"/>
</g>
</svg>
