<?xml version="1.0" standalone="no"?>
<!DOCTYPE svg PUBLIC "-//W3C//DTD SVG 20010904//EN"
 "http://www.w3.org/TR/2001/REC-SVG-20010904/DTD/svg10.dtd">
<svg version="1.0" xmlns="http://www.w3.org/2000/svg"
 width="800.000000pt" height="779.000000pt" viewBox="0 0 800.000000 779.000000"
 preserveAspectRatio="xMidYMid meet">

<g transform="translate(0.000000,779.000000) scale(0.100000,-0.100000)"
fill="#000000" stroke="none">
<path d="M4322 7758 c-5 -7 -12 -24 -14 -37 -2 -18 -12 -27 -33 -33 -35 -9
-97 6 -115 27 -15 18 -42 19 -58 3 -17 -17 -15 -57 8 -130 11 -34 20 -64 20
-65 0 -8 -99 -1 -173 12 -85 15 -117 13 -117 -7 0 -22 44 -80 97 -127 l55 -50
-38 -7 c-52 -9 -114 -34 -114 -45 0 -5 39 -27 86 -49 97 -45 150 -84 185 -135
29 -43 145 -105 196 -105 28 0 34 -3 29 -16 -3 -9 -9 -27 -12 -40 l-6 -24
-354 0 -354 0 -10 25 c-5 14 -22 37 -36 50 l-26 24 39 16 c25 11 69 17 128 18
78 0 99 -3 145 -25 63 -30 80 -27 80 14 0 47 -96 140 -192 187 l-77 38 55 53
c53 52 72 86 61 114 -4 10 -22 14 -64 13 -48 -1 -72 5 -137 36 -101 49 -180
67 -288 67 l-88 0 0 34 c0 89 -52 118 -91 52 -14 -25 -34 -40 -67 -52 -149
-53 -231 -113 -276 -202 -31 -62 -84 -108 -138 -122 -88 -22 -174 -52 -206
-70 l-32 -19 6 38 c14 84 -44 159 -129 168 -81 8 -157 -59 -157 -139 0 -45 12
-71 48 -110 23 -25 24 -29 10 -50 -23 -35 -86 -96 -131 -129 -30 -21 -51 -29
-84 -29 -42 0 -43 0 -43 35 0 82 -41 191 -77 202 -6 2 -28 -22 -49 -54 -21
-32 -66 -86 -99 -120 l-61 -63 -87 0 -87 0 0 -98 0 -99 -40 -43 -41 -44 -29
36 c-31 37 -89 64 -115 54 -11 -4 -13 -19 -8 -70 8 -84 -8 -138 -63 -222 -32
-49 -48 -87 -61 -145 -13 -65 -19 -79 -32 -73 -68 29 -125 37 -178 26 -98 -20
-105 -42 -35 -110 49 -48 59 -72 82 -184 14 -71 56 -130 109 -154 36 -16 40
-22 35 -44 -14 -61 -110 -218 -139 -227 -11 -3 -46 44 -85 116 -59 107 -184
133 -270 55 -46 -42 -64 -90 -57 -150 9 -85 76 -147 160 -148 29 0 64 3 78 7
26 8 27 6 39 -43 22 -94 -1 -209 -57 -278 l-19 -24 -38 38 c-31 31 -39 48 -47
96 -20 126 -80 236 -158 294 -54 39 -99 44 -127 13 -18 -20 -18 -21 11 -77 26
-48 30 -70 33 -147 3 -81 1 -97 -27 -167 -17 -42 -31 -85 -31 -96 0 -16 -7
-19 -37 -18 l-38 1 3 -45 c2 -25 4 -156 5 -291 l2 -246 -50 1 c-147 3 -250
-88 -161 -144 55 -34 94 -85 147 -195 75 -158 171 -242 296 -261 l43 -6 0 -47
c0 -45 15 -158 26 -193 5 -16 2 -16 -38 2 -24 11 -49 20 -57 20 -7 0 -34 22
-60 49 -56 60 -108 78 -173 60 -60 -16 -93 -42 -117 -92 -82 -169 110 -328
264 -219 l42 29 37 -19 c76 -39 151 -135 172 -221 l6 -27 -74 35 c-79 38 -174
62 -201 52 -32 -12 -21 -75 33 -182 l50 -100 -34 -3 c-42 -4 -79 14 -141 68
-25 22 -53 40 -60 40 -47 0 -45 -146 4 -279 17 -46 53 -125 81 -177 l50 -94
-39 -6 c-45 -7 -95 -52 -89 -80 2 -10 16 -22 33 -27 131 -38 251 -136 314
-256 45 -87 155 -200 229 -236 26 -13 37 -24 31 -31 -20 -24 -41 -138 -34
-189 16 -132 124 -263 247 -300 l41 -12 -46 -22 c-57 -27 -89 -66 -85 -100 4
-30 26 -42 123 -70 44 -13 90 -35 124 -61 78 -57 128 -54 92 6 -22 36 -119 89
-189 104 -80 18 -83 33 -15 66 50 25 72 29 165 33 91 3 110 6 125 23 17 19 17
20 -2 34 -11 8 -36 17 -57 20 l-37 6 56 64 c31 35 62 64 69 64 20 0 70 -47 84
-79 11 -29 10 -32 -53 -104 -55 -63 -67 -84 -77 -133 -37 -179 45 -315 230
-380 127 -45 192 -78 280 -146 112 -85 225 -152 417 -247 401 -199 821 -326
1283 -388 189 -25 687 -25 875 0 587 79 1148 295 1643 631 169 115 188 125
254 133 102 11 209 87 254 182 28 57 30 139 5 220 -18 58 -34 84 -91 151 -39
45 -70 85 -70 89 0 13 54 59 81 70 25 9 30 5 78 -55 28 -35 57 -64 64 -65 7
-1 -6 -7 -27 -13 -22 -7 -44 -20 -50 -29 -20 -31 9 -42 122 -47 88 -5 117 -10
165 -33 35 -16 57 -32 55 -39 -3 -7 -31 -20 -64 -29 -32 -9 -75 -23 -95 -31
-48 -21 -109 -76 -109 -99 0 -30 49 -24 92 11 44 37 133 77 187 86 45 7 81 36
81 64 0 24 -55 79 -98 97 l-34 14 43 22 c24 11 71 49 106 83 115 113 154 247
104 360 -12 26 -20 48 -19 49 2 1 26 14 54 29 90 49 174 134 218 221 64 127
187 231 314 264 34 10 42 16 42 35 0 34 -53 76 -96 76 l-34 0 58 113 c70 137
103 231 109 319 10 128 -14 147 -95 79 -52 -44 -108 -71 -147 -71 -14 0 -25 2
-25 4 0 3 23 51 50 107 51 104 62 157 36 178 -20 17 -134 -11 -213 -53 -35
-19 -63 -30 -63 -25 0 4 9 33 21 63 23 62 90 143 141 170 34 18 34 18 72 -8
68 -46 144 -46 223 0 71 41 102 139 69 217 -18 44 -78 95 -122 103 -86 16
-187 -24 -219 -86 -9 -16 -21 -30 -28 -30 -7 0 -29 -9 -50 -19 -41 -21 -41
-21 -27 30 6 20 14 76 18 124 l7 88 55 11 c121 25 203 101 282 262 44 88 64
116 115 164 38 34 63 65 63 78 0 48 -115 99 -206 91 l-39 -4 0 230 c0 126 4
258 9 292 10 70 1 82 -46 64 -24 -9 -26 -8 -31 29 -3 21 -17 64 -32 96 -25 53
-27 65 -23 153 4 80 9 104 32 147 32 61 26 88 -24 99 -37 8 -81 -17 -137 -78
-61 -66 -92 -141 -118 -287 -4 -23 -18 -45 -42 -65 l-36 -29 -23 29 c-55 68
-77 182 -53 268 10 38 10 38 53 32 49 -8 119 9 159 37 97 69 83 238 -24 294
-45 23 -131 20 -185 -6 -46 -23 -94 -87 -94 -126 0 -10 -10 -32 -23 -47 l-22
-29 -44 59 c-41 54 -81 129 -96 180 -5 18 -1 25 17 32 68 26 121 100 133 186
11 74 36 125 88 174 37 36 44 47 36 62 -21 40 -164 52 -235 20 l-42 -19 -6 41
c-11 69 -37 139 -72 193 -50 76 -66 128 -62 209 l3 70 -32 3 c-27 3 -41 -4
-79 -40 l-46 -44 -50 52 -49 52 7 86 7 86 -152 0 -151 0 -53 53 c-29 29 -86
70 -127 91 -41 22 -100 63 -130 92 -70 66 -92 73 -125 40 -33 -33 -33 -82 1
-146 30 -58 44 -130 24 -130 -7 0 -28 18 -47 40 -23 26 -64 54 -128 85 -111
55 -193 129 -220 199 -17 45 -17 47 4 97 46 105 -17 199 -133 199 -43 0 -53
-4 -86 -38 -48 -47 -59 -96 -37 -154 l16 -40 -42 6 c-70 11 -175 65 -197 101
-53 85 -228 205 -300 205 -68 0 -191 51 -264 109 -43 35 -49 36 -64 19z m77
-87 c37 -27 90 -46 189 -70 114 -28 172 -62 261 -154 83 -86 121 -111 226
-152 39 -16 94 -43 123 -62 56 -38 82 -38 82 0 0 31 18 47 52 47 23 0 31 -8
53 -55 31 -64 90 -118 215 -193 85 -52 130 -85 130 -96 0 -3 -48 -6 -107 -6
l-108 1 -20 32 c-33 51 -96 80 -189 85 -96 5 -133 22 -152 67 -18 45 -76 75
-142 75 -69 0 -110 -16 -162 -65 -62 -57 -114 -96 -201 -150 l-73 -45 -98 0
-98 0 19 38 c10 20 28 46 40 56 32 29 26 36 -37 36 -122 0 -221 41 -316 129
-35 33 -83 66 -109 76 -49 19 -57 29 -31 39 39 15 96 5 137 -23 116 -79 241
-119 401 -128 102 -6 108 -7 90 -22 -51 -42 -81 -111 -58 -134 3 -3 36 19 73
49 68 56 141 96 199 109 57 12 36 30 -43 37 -28 3 -27 4 19 21 27 9 67 17 89
17 38 0 39 1 32 28 -30 121 -170 230 -356 276 -36 9 -76 16 -88 16 -49 0 -124
109 -90 131 18 12 17 12 48 -10z m-228 -12 c12 -17 28 -22 80 -26 63 -5 67 -7
82 -38 l15 -32 -56 -16 c-54 -15 -58 -15 -88 4 -18 11 -39 35 -48 53 -28 59
-16 102 15 55z m-1015 -117 c-4 -11 -42 -42 -84 -68 -74 -46 -162 -125 -162
-145 0 -5 24 8 53 30 106 81 272 141 387 141 74 0 167 -27 223 -65 28 -19 61
-35 73 -35 12 0 27 -6 33 -14 15 -18 -19 -60 -70 -86 -52 -27 -76 -25 -105 9
-29 35 -105 66 -185 75 -88 11 -246 -30 -339 -89 -22 -14 -54 -25 -72 -26 -18
0 -42 -4 -53 -9 -17 -6 -15 -8 15 -13 19 -3 79 -9 132 -12 108 -6 162 -20 138
-35 -8 -6 -35 -10 -60 -10 -70 0 -170 -19 -220 -41 -60 -27 -126 -40 -233 -48
-48 -3 -88 -10 -90 -16 -1 -5 29 -15 66 -21 72 -12 83 -17 72 -33 -4 -7 -50
-11 -118 -11 -134 0 -217 -19 -269 -61 -36 -28 -42 -30 -114 -27 l-77 3 54 40
c34 25 61 56 74 82 15 31 26 42 43 43 13 0 36 7 52 15 22 11 29 12 33 2 3 -8
37 5 108 40 57 28 121 55 143 58 21 4 62 17 92 30 47 21 56 30 83 83 55 110
131 175 223 192 28 6 61 19 72 29 38 33 60 41 75 27 7 -8 10 -22 7 -34z m1380
-56 c60 -16 146 -60 171 -88 18 -20 17 -20 -32 -12 -79 13 -196 8 -237 -9 -38
-16 -79 -67 -42 -53 47 19 137 26 195 17 70 -12 156 -38 164 -51 3 -5 -29 -26
-72 -47 -75 -37 -80 -38 -187 -38 -95 0 -123 4 -191 28 -74 25 -115 47 -284
151 -60 37 -96 75 -84 87 4 4 39 3 76 -4 59 -10 83 -8 185 10 139 24 267 28
338 9z m832 -22 c36 -41 24 -118 -17 -107 -10 2 -36 0 -57 -6 -35 -10 -41 -9
-56 10 -29 35 -23 83 14 114 38 32 81 29 116 -11z m-1985 -125 c31 -12 66 -32
79 -46 27 -29 37 -19 -110 -114 -84 -55 -99 -61 -168 -69 -70 -7 -188 1 -201
14 -9 9 46 26 119 36 38 6 87 19 108 30 38 20 68 56 56 68 -4 3 -52 8 -108 11
l-102 6 27 18 c39 25 74 38 142 52 84 18 96 18 158 -6z m-1068 -34 c35 -34 34
-93 0 -125 -57 -53 -149 -12 -149 66 0 74 96 113 149 59z m1364 -91 c48 -14
131 -74 131 -95 0 -5 -26 -9 -58 -9 -70 0 -153 -14 -246 -42 -66 -20 -175 -22
-204 -4 -12 7 83 100 142 140 33 22 50 26 111 26 39 0 95 -7 124 -16z m1362
-82 l22 -19 -33 -7 c-70 -14 -113 -66 -112 -138 l1 -38 -127 0 c-106 0 -124 2
-112 13 34 31 227 175 255 190 40 22 78 21 106 -1z m827 -1 c15 -10 43 -23 63
-30 65 -21 219 -135 219 -162 0 -5 -22 -9 -48 -9 -43 0 -52 4 -87 41 -40 40
-83 69 -106 69 -6 0 9 -22 35 -50 25 -27 46 -52 46 -55 0 -3 -26 -5 -57 -5
l-58 0 -23 83 c-21 79 -28 137 -16 137 3 0 18 -8 32 -19z m-2942 -87 c38 -18
124 -91 124 -105 0 -5 -33 -9 -74 -9 l-73 0 -7 41 c-4 26 -17 52 -37 71 l-30
31 31 -7 c17 -3 47 -13 66 -22z m-1075 -32 c5 -14 7 -38 4 -54 -6 -27 -8 -28
-71 -28 l-65 0 53 59 c29 33 56 57 61 54 5 -3 13 -17 18 -31z m3255 3 c27 -28
33 -40 28 -60 -6 -24 -10 -25 -79 -25 -76 0 -85 5 -85 51 0 28 44 69 75 69 16
0 39 -13 61 -35z m-1951 9 c61 -1 159 -5 218 -9 98 -7 110 -10 127 -33 40 -50
35 -52 -158 -52 l-177 0 -61 40 c-34 22 -68 48 -75 57 -12 15 -12 16 1 8 8 -6
65 -10 125 -11z m-335 -24 c11 -11 20 -31 20 -45 0 -24 -2 -25 -75 -25 -86 0
-95 12 -47 60 33 33 75 37 102 10z m2546 -10 c23 -11 49 -29 59 -40 18 -20 17
-20 -108 -20 l-127 0 0 29 c0 23 6 32 28 39 44 17 103 13 148 -8z m-2736 -35
l0 -25 -132 0 c-79 0 -128 4 -122 9 22 21 104 40 177 41 76 0 77 0 77 -25z
m3929 -316 l23 -31 -23 -52 c-13 -28 -27 -55 -31 -60 -4 -6 -8 31 -8 82 0 51
4 92 8 92 5 0 19 -14 31 -31z m-5111 -80 l-3 -30 -19 35 c-18 35 -18 36 0 63
l19 28 3 -32 c2 -18 2 -47 0 -64z m5264 29 c8 -13 25 -50 38 -83 13 -33 40
-94 61 -135 47 -95 63 -164 63 -265 0 -97 -8 -131 -34 -145 -36 -19 -60 3 -60
58 -1 133 -59 278 -152 377 -59 64 -60 65 -48 100 14 41 79 115 102 115 9 0
22 -10 30 -22z m-5355 -20 c31 -33 63 -88 63 -108 0 -6 -24 -35 -53 -65 -30
-29 -68 -81 -85 -114 -39 -72 -72 -195 -72 -267 0 -44 -3 -54 -20 -59 -57 -18
-76 22 -74 160 1 86 23 179 56 234 10 19 37 77 59 130 22 52 44 101 50 108 18
21 43 15 76 -19z m5237 -238 c63 -66 101 -140 122 -240 27 -129 13 -175 -33
-107 -12 17 -54 64 -92 102 l-71 70 0 118 c0 64 4 117 8 117 5 0 35 -27 66
-60z m-5144 -78 l0 -118 -36 -35 c-20 -18 -58 -62 -86 -96 -28 -34 -55 -60
-59 -57 -24 14 6 177 49 268 28 59 104 156 123 156 5 0 9 -53 9 -118z m-415
-75 l40 -22 3 -79 3 -79 -25 17 c-37 24 -41 20 -12 -14 31 -38 49 -93 44 -142
-3 -36 -4 -37 -27 -25 -38 19 -59 56 -84 147 -28 102 -40 126 -78 162 -35 32
-36 46 -6 58 31 13 94 3 142 -23z m6082 17 c4 -11 -6 -27 -29 -48 -35 -32 -55
-80 -88 -209 -13 -49 -59 -107 -86 -107 -10 0 -14 12 -14 39 0 50 16 98 49
141 l26 35 -27 -17 c-15 -10 -30 -18 -33 -18 -3 0 -5 34 -5 75 0 67 2 76 23
87 69 40 172 52 184 22z m-3702 -678 c1 -427 -3 -635 -10 -649 -7 -14 -27 -26
-57 -34 -50 -12 -456 -22 -474 -11 -7 5 -10 193 -9 595 1 639 1 644 57 674 15
9 87 15 208 19 139 5 194 10 220 22 70 33 65 80 65 -616z m1263 614 c62 -16
93 -18 220 -13 171 7 174 5 190 -87 11 -62 -1 -1180 -12 -1199 -5 -7 -20 -9
-39 -6 -18 3 -121 7 -230 9 -180 3 -201 5 -225 23 l-27 20 -3 609 c-2 410 0
618 7 637 12 32 22 33 119 7z m1035 7 c6 -16 -2 -1247 -8 -1268 -11 -33 -52
-39 -260 -39 -128 0 -222 -5 -250 -12 -24 -7 -46 -10 -48 -7 -2 2 -1 284 3
627 l6 622 22 23 c21 21 33 22 225 28 140 5 216 11 247 22 58 19 57 19 63 4z
m-3325 -23 c46 -14 84 -16 195 -11 156 6 190 -1 212 -43 17 -33 22 -273 17
-851 -1 -195 0 -362 3 -370 12 -33 -9 -41 -74 -29 -49 9 -232 18 -397 20 -12
0 -32 8 -44 18 l-23 19 -3 614 c-2 338 -1 622 2 632 7 22 39 22 112 1z m1253
-11 c9 -10 16 -55 20 -125 3 -59 10 -113 16 -119 6 -6 41 -14 76 -18 61 -6 97
-22 97 -42 0 -5 -9 -18 -20 -29 -15 -15 -33 -20 -72 -20 -29 0 -60 -5 -68 -10
-12 -7 -16 -51 -23 -217 -4 -114 -7 -268 -5 -341 3 -127 4 -135 27 -153 17
-14 39 -19 80 -19 58 0 84 -11 94 -42 10 -29 -24 -46 -102 -50 -54 -3 -76 -8
-86 -21 -7 -10 -15 -68 -19 -139 -5 -87 -12 -127 -22 -138 -12 -12 -63 -16
-282 -20 -324 -7 -362 -5 -362 21 0 11 1 20 3 21 1 1 122 4 269 7 250 6 268 7
295 27 20 15 30 33 35 65 11 73 9 1227 -3 1298 -8 51 -7 66 3 72 20 13 34 11
49 -8z m765 4 c2 -7 -3 -31 -12 -52 -14 -36 -16 -111 -18 -688 l-1 -649 28
-24 c28 -24 31 -24 240 -25 310 0 406 -15 353 -55 -28 -20 -581 -21 -630 0
-39 16 -46 40 -46 151 0 64 -3 77 -26 104 -23 27 -32 31 -79 31 -38 0 -60 6
-79 21 -50 40 -25 74 64 84 93 11 99 19 111 160 5 66 7 212 4 325 -7 246 -5
242 -114 248 -77 5 -108 24 -97 60 8 25 25 32 105 42 90 12 97 22 109 154 7
69 15 112 24 117 20 13 58 11 64 -4z m-872 -42 c21 -39 21 -48 18 -650 -1
-335 -5 -611 -8 -614 -11 -11 -40 18 -60 60 -20 43 -20 53 -16 647 l4 603 20
-3 c13 -2 30 -19 42 -43z m2428 22 c9 -13 11 -40 8 -110 -2 -62 15 -111 43
-125 12 -6 46 -13 76 -15 58 -5 84 -25 79 -62 -4 -28 -44 -45 -110 -45 -92 0
-89 10 -86 -364 3 -367 -3 -345 106 -355 97 -9 126 -37 82 -81 -16 -16 -33
-20 -94 -20 -47 0 -77 -5 -83 -12 -6 -7 -16 -67 -22 -133 -17 -169 -2 -159
-254 -163 -332 -5 -508 13 -440 44 10 4 145 8 300 9 255 1 285 2 300 18 26 26
31 134 32 769 1 411 -2 570 -11 603 -11 39 -10 48 2 56 18 11 62 2 72 -14z
m-3861 -23 c-8 -53 -6 -1338 1 -1366 13 -44 51 -49 349 -51 249 -2 273 -4 283
-20 8 -14 8 -20 -4 -27 -9 -6 -146 -10 -326 -10 -387 0 -357 -13 -365 160 -6
138 -7 140 -86 140 -64 0 -98 12 -113 41 -10 18 -9 25 9 42 16 17 37 22 91 25
46 3 74 9 82 20 20 23 19 672 -1 695 -10 13 -30 17 -82 17 -87 0 -121 14 -117
49 4 35 58 61 125 61 69 0 84 21 93 136 5 60 12 89 25 104 25 27 41 20 36 -16z
m119 -600 c0 -450 -3 -631 -11 -647 -17 -33 -51 -67 -60 -61 -5 3 -9 286 -9
630 0 602 1 626 20 663 19 38 37 53 52 44 4 -2 7 -285 8 -629z m3604 614 c34
-53 37 -111 30 -699 -7 -545 -8 -579 -25 -579 -10 0 -28 15 -41 33 l-23 32 -1
570 c-1 646 0 665 27 665 10 0 25 -10 33 -22z m-1329 -623 c0 -608 0 -614 -21
-642 -49 -66 -49 -72 -52 557 -2 322 0 604 3 627 7 51 42 100 59 83 8 -8 11
-185 11 -625z m2088 486 c20 -40 37 -84 37 -98 0 -22 -3 -24 -25 -19 -76 19
-75 18 -75 112 0 105 10 106 63 5z m-5136 -108 c-3 -2 -22 -7 -42 -10 l-38 -6
6 37 c3 20 21 62 39 94 l33 57 3 -84 c2 -46 1 -85 -1 -88z m5422 -58 c62 -129
164 -309 180 -319 18 -12 43 7 57 45 18 44 34 53 63 33 26 -19 27 -36 2 -58
-25 -23 -45 -123 -39 -200 6 -67 36 -145 86 -218 28 -43 28 -43 13 -85 l-16
-42 -42 32 c-23 18 -60 64 -84 105 -74 125 -181 230 -253 248 -14 3 -26 9 -26
13 0 3 -3 16 -6 29 -6 20 -3 22 34 22 29 0 49 -7 71 -26 l31 -26 0 26 c0 40
-75 180 -201 377 -27 42 -49 81 -49 86 0 13 24 23 56 23 18 0 24 5 24 23 0 26
7 37 26 37 6 0 39 -56 73 -125z m-5647 88 c2 -24 8 -29 36 -31 18 -2 35 -9 38
-16 3 -8 -19 -51 -49 -97 -110 -169 -188 -315 -194 -360 -5 -44 -4 -44 14 -23
25 30 56 44 93 44 30 0 32 -2 25 -27 -4 -16 -7 -28 -8 -29 -1 0 -24 -11 -51
-24 -68 -32 -154 -121 -216 -223 -57 -94 -126 -160 -141 -136 -25 40 -21 76
15 131 50 75 76 154 76 233 0 69 -16 121 -43 144 -21 17 -22 64 -2 81 23 19
47 7 69 -35 35 -66 54 -59 115 42 29 48 81 148 117 221 49 102 68 132 83 132
14 0 21 -8 23 -27z m5325 -104 c-15 -24 -27 -24 -27 -1 0 24 8 32 26 25 10 -4
11 -9 1 -24z m-5097 5 c0 -8 -5 -12 -10 -9 -6 4 -8 11 -5 16 9 14 15 11 15 -7z
m5251 -65 l20 -29 -48 0 c-42 -1 -75 -9 -135 -35 -15 -6 -18 -2 -18 29 0 39
14 51 77 64 54 11 80 4 104 -29z m-5290 19 c37 -10 39 -14 39 -50 0 -37 -1
-38 -22 -26 -13 6 -54 14 -93 17 l-70 6 32 33 c34 35 54 38 114 20z m-648 -48
c39 -31 43 -55 12 -92 -18 -22 -25 -40 -24 -62 4 -45 -7 -56 -56 -56 -82 0
-142 81 -112 152 31 74 122 103 180 58z m6575 4 c29 -20 52 -65 52 -101 0 -67
-70 -125 -127 -106 -25 9 -27 13 -24 52 2 36 -2 46 -29 71 l-31 29 32 35 c25
29 38 36 68 36 20 0 47 -7 59 -16z m-564 -76 c36 -49 85 -135 92 -163 6 -25 5
-25 -42 -18 -27 3 -51 9 -54 12 -45 57 -141 69 -204 26 -20 -14 -38 -25 -39
-25 -2 0 -1 30 1 68 3 54 8 70 25 85 30 23 103 45 154 46 36 1 45 -4 67 -31z
m-5369 -3 l40 -20 3 -68 3 -68 -42 22 c-58 29 -117 22 -169 -20 -29 -23 -49
-31 -79 -31 -23 0 -41 5 -41 10 0 16 38 87 78 148 l36 54 66 -4 c37 -2 82 -12
105 -23z m6175 -145 c0 -6 -10 -30 -22 -53 -29 -55 -29 -147 1 -236 14 -41 21
-89 21 -135 0 -67 -2 -74 -29 -100 l-30 -28 -41 82 c-23 46 -53 100 -67 122
-23 34 -25 45 -21 106 8 105 61 192 143 235 36 19 45 20 45 7z m-7076 -51 c40
-36 61 -65 75 -105 27 -71 28 -162 2 -195 -10 -13 -41 -66 -68 -116 l-50 -93
-26 28 c-24 25 -27 35 -27 103 0 52 7 95 21 135 30 84 31 188 1 235 -47 76 -8
81 72 8z m887 11 c24 -13 49 -61 49 -94 0 -33 -44 -83 -81 -91 -95 -21 -159
97 -90 166 31 31 83 39 122 19z m5310 0 c24 -13 49 -61 49 -95 0 -40 -50 -85
-95 -85 -47 0 -71 13 -90 50 -23 44 -19 78 14 111 31 31 83 39 122 19z m186
-172 c67 -40 162 -179 173 -254 l7 -44 -62 59 c-62 60 -186 147 -243 170 l-31
13 36 44 c41 48 57 50 120 12z m-5659 -18 l32 -38 -74 -41 c-84 -46 -212 -145
-244 -187 l-21 -29 6 45 c14 114 166 291 248 289 11 0 35 -18 53 -39z m5333
-22 c20 -15 50 -25 87 -28 53 -5 58 -7 75 -40 15 -31 17 -54 11 -200 -4 -91
-8 -166 -9 -168 -2 -2 -21 6 -44 17 -47 24 -103 27 -121 6 -16 -19 -5 -65 36
-147 19 -37 34 -70 34 -73 0 -3 -34 -5 -75 -5 l-74 0 4 28 c17 95 26 214 32
410 3 122 8 222 10 222 2 0 17 -10 34 -22z m-5101 -213 c6 -121 16 -266 23
-321 l13 -102 -65 -6 c-36 -3 -66 -4 -68 -2 -2 2 12 36 32 77 19 40 38 88 41
106 12 66 -34 80 -122 39 l-51 -24 -6 164 c-5 106 -3 173 4 191 18 47 39 63
83 63 23 0 55 8 71 19 17 10 31 18 32 17 1 -1 7 -100 13 -221z m-245 -39 c10
-189 1 -215 -107 -296 -44 -34 -81 -60 -82 -58 -30 49 -28 60 23 162 28 56 64
125 81 155 17 30 27 57 24 60 -9 8 -96 -91 -151 -171 -26 -38 -50 -68 -53 -68
-9 0 -30 72 -30 104 0 38 145 182 219 219 30 15 58 27 62 27 4 0 10 -60 14
-134z m5637 113 c22 -11 80 -59 129 -106 67 -65 89 -92 89 -112 0 -36 -19
-101 -30 -101 -4 0 -33 35 -63 78 -53 74 -147 175 -147 157 0 -4 27 -56 59
-114 89 -157 104 -198 90 -233 -6 -15 -14 -28 -16 -28 -3 0 -38 24 -78 53
-108 77 -121 114 -110 303 8 138 8 138 77 103z m552 -31 c23 -32 76 -147 76
-167 0 -9 -79 -129 -101 -155 -4 -4 -17 11 -29 35 -12 24 -38 65 -56 92 -19
26 -34 53 -34 60 0 34 34 122 55 143 33 33 59 30 89 -8z m-6727 0 c21 -24 53
-105 53 -136 0 -10 -13 -36 -29 -58 -15 -21 -39 -59 -52 -84 -13 -25 -28 -47
-32 -48 -4 -1 -30 31 -58 73 -49 73 -50 76 -38 113 30 95 78 162 114 162 12 0
31 -10 42 -22z m6510 -152 c172 -189 256 -465 224 -736 -16 -134 -27 -170 -51
-170 -14 0 -20 7 -20 23 0 12 -16 98 -34 190 -37 178 -78 318 -103 351 -12 16
-14 17 -10 3 21 -59 38 -183 35 -252 l-3 -80 -18 50 c-23 66 -85 168 -142 234
-52 60 -53 74 -10 137 35 51 45 96 45 196 0 87 5 118 20 118 5 0 35 -29 67
-64z m-6771 -39 c78 -81 127 -148 150 -204 14 -32 14 -42 0 -97 -8 -34 -18
-74 -21 -91 -6 -28 -8 -25 -35 44 -16 41 -34 79 -41 85 -9 8 -10 7 -6 -6 3
-10 9 -52 13 -95 4 -43 17 -103 29 -133 17 -42 24 -84 28 -177 4 -71 2 -123
-3 -123 -14 0 -114 128 -148 190 -73 131 -98 291 -68 432 20 95 20 178 2 223
-29 70 4 54 100 -48z m475 -27 c6 -122 12 -144 53 -205 14 -21 26 -44 26 -52
0 -7 -24 -43 -54 -79 -54 -66 -114 -168 -141 -241 -13 -37 -14 -36 -14 52 -1
77 9 147 34 249 2 12 -7 -3 -21 -33 -30 -61 -83 -268 -109 -421 -18 -113 -26
-130 -49 -111 -39 33 -54 347 -22 488 34 157 112 309 216 426 65 73 74 65 81
-73z m6792 114 c3 -4 0 -19 -8 -35 -19 -36 -19 -136 0 -214 29 -121 12 -271
-45 -393 -34 -73 -103 -172 -149 -216 l-30 -29 5 124 c5 95 11 138 29 184 12
33 26 92 29 130 4 39 9 81 12 95 7 35 -46 -65 -61 -114 l-12 -39 -22 96 -22
97 32 60 c35 66 138 192 191 233 35 28 41 31 51 21z m-4205 -134 c30 -32 47
-69 36 -79 -13 -12 -556 -21 -577 -9 -24 13 -21 45 4 59 12 6 40 9 63 6 68 -9
347 9 391 26 55 20 61 20 83 -3z m-1175 -7 c26 -14 63 -17 197 -19 91 -1 181
-2 201 -3 43 -1 83 -29 75 -51 -5 -13 -45 -15 -278 -12 -314 3 -327 6 -272 71
30 36 34 37 77 14z m2518 -1 c219 -8 243 -14 237 -56 -3 -19 -9 -21 -53 -18
-27 2 -151 4 -275 5 -262 2 -281 8 -227 65 19 21 28 23 67 17 25 -3 138 -10
251 -13z m959 -8 c20 -18 30 -34 28 -48 -3 -21 -6 -21 -295 -24 -255 -2 -293
0 -307 14 -46 46 -4 56 238 59 116 1 224 7 241 13 47 16 61 14 95 -14z m-4390
-42 c0 -3 -13 -26 -30 -51 -51 -81 -98 -195 -119 -287 -36 -165 -91 -273 -185
-363 -54 -50 -120 -90 -132 -78 -20 19 127 348 210 472 l47 70 -36 -35 c-41
-39 -190 -223 -280 -345 l-59 -80 -10 33 c-12 44 6 140 40 210 70 143 285 341
488 450 34 18 66 20 66 4z m5380 -64 c161 -105 318 -259 372 -363 44 -85 65
-175 52 -228 l-9 -38 -80 108 c-82 111 -268 337 -286 348 -5 4 16 -32 46 -79
66 -101 131 -234 180 -370 35 -96 35 -97 13 -91 -80 24 -182 125 -239 237 -30
59 -79 215 -79 250 0 25 -75 189 -112 246 -29 45 -29 62 1 62 9 0 73 -37 141
-82z m-1615 26 c36 -14 59 -106 33 -132 -13 -13 -67 -16 -84 -4 -37 24 -40 88
-7 125 17 18 31 21 58 11z m-2235 -51 c52 -66 -30 -162 -92 -106 -28 25 -25
97 7 129 29 28 49 23 85 -23z m3703 -122 c28 -11 61 -86 102 -232 15 -51 33
-106 41 -122 23 -43 10 -44 -41 -3 -41 34 -74 74 -203 243 -48 63 -62 101 -41
114 18 12 111 11 142 0z m-5128 -25 c18 -13 18 -14 -1 -50 -44 -84 -234 -308
-286 -337 -14 -7 -13 0 7 49 13 31 31 86 40 122 9 36 30 100 46 142 33 84 33
84 125 87 29 0 58 -5 69 -13z m5066 -218 c54 -100 136 -184 230 -233 38 -20
69 -37 69 -38 0 -1 -20 -1 -45 1 -69 6 -112 -6 -151 -40 -48 -42 -64 -77 -64
-141 0 -62 25 -108 78 -143 50 -34 99 -38 171 -14 l61 20 43 -21 c100 -50 141
-117 141 -234 1 -74 0 -80 -21 -83 -28 -4 -43 -44 -42 -115 1 -32 -1 -61 -4
-64 -3 -2 -14 10 -24 29 -14 25 -18 59 -20 143 -1 61 -2 116 -3 123 0 6 -13
12 -28 12 -40 0 -100 -54 -146 -134 -21 -36 -41 -66 -45 -66 -3 0 -21 24 -38
53 -67 111 -134 169 -171 148 -14 -8 -17 -27 -17 -118 0 -97 -3 -113 -25 -152
-36 -64 -51 -70 -92 -39 -41 31 -118 71 -125 64 -15 -15 -24 -200 -21 -430 l3
-261 -58 -28 c-42 -21 -63 -39 -80 -68 -12 -21 -25 -39 -28 -39 -11 0 -22 52
-20 93 5 82 -48 155 -128 177 -154 41 -268 -147 -165 -270 33 -38 58 -52 109
-59 l40 -6 3 -52 3 -52 -65 -31 c-108 -51 -195 -156 -196 -235 0 -34 31 -91
63 -117 12 -10 36 -18 53 -18 40 0 89 -49 79 -79 -7 -23 -19 -27 -110 -36 -33
-4 -75 -13 -94 -21 -48 -20 -53 -8 -47 109 5 95 5 97 -17 97 -32 -1 -98 -33
-139 -69 -20 -17 -39 -31 -43 -31 -4 0 -5 33 -1 73 8 85 -8 216 -29 236 -34
35 -133 -59 -230 -219 l-37 -61 -22 20 c-12 12 -29 21 -37 21 -24 0 -64 -50
-84 -105 -14 -37 -43 -76 -114 -150 -53 -55 -126 -133 -163 -174 l-67 -74 -31
27 c-43 36 -71 33 -110 -11 -42 -47 -69 -109 -77 -173 -3 -28 -9 -50 -12 -50
-3 0 -60 -7 -126 -15 -66 -8 -140 -15 -165 -15 l-45 0 85 54 c577 366 1151
911 1536 1459 356 505 615 1088 724 1627 12 58 24 111 26 119 8 24 58 -34 105
-121z m-5026 65 c4 -27 24 -118 46 -204 273 -1092 996 -2084 2070 -2841 37
-26 106 -73 155 -103 l89 -57 -90 7 c-49 4 -123 12 -164 19 l-75 11 -16 65
c-20 80 -38 115 -83 159 -41 38 -71 38 -112 -3 l-24 -24 -60 67 c-32 36 -106
114 -164 173 -96 98 -137 155 -137 190 0 8 -16 29 -35 48 -31 30 -37 32 -60
22 -14 -6 -25 -16 -25 -22 0 -25 -20 -4 -65 66 -54 87 -155 199 -185 207 -10
3 -26 0 -35 -7 -20 -14 -35 -108 -35 -218 l0 -88 -64 44 c-68 46 -121 65 -138
48 -7 -7 -6 -28 2 -65 16 -69 6 -132 -18 -122 -9 4 -56 10 -104 14 -107 8
-132 24 -108 69 13 23 24 28 70 32 92 9 130 43 130 118 0 95 -88 199 -228 268
l-73 36 3 47 3 46 57 6 c67 7 116 40 142 92 59 125 -54 268 -188 237 -80 -18
-129 -79 -131 -164 -2 -56 -34 -144 -35 -96 0 45 -53 104 -102 115 l-28 7 -1
281 c-1 272 -7 388 -22 403 -10 10 -72 -21 -120 -58 l-38 -31 -30 29 c-43 41
-63 119 -55 212 8 81 0 102 -39 102 -28 0 -98 -73 -145 -152 -19 -32 -37 -57
-40 -57 -3 0 -20 26 -39 58 -52 92 -117 151 -166 151 -10 0 -14 -30 -16 -128
-3 -108 -7 -133 -24 -157 l-20 -30 -5 76 c-6 77 -22 114 -46 105 -26 -10 -33
80 -13 160 14 55 82 133 138 159 39 17 43 17 95 1 87 -28 163 -2 213 73 27 40
31 126 9 170 -37 70 -121 111 -198 96 -25 -4 -17 3 36 32 98 53 173 126 225
219 53 94 90 146 101 139 4 -3 11 -26 15 -52z m6336 7 c28 -16 23 -36 -15 -65
-34 -26 -86 -105 -141 -214 -32 -64 -125 -166 -175 -191 -19 -10 -50 -21 -67
-25 l-33 -7 0 42 c0 38 7 49 63 110 75 81 128 169 165 272 30 85 27 84 130 87
29 0 62 -4 73 -9z m-7574 -17 c53 -155 118 -267 201 -348 46 -45 52 -55 52
-92 0 -40 -2 -43 -27 -43 -39 0 -121 50 -169 101 -22 24 -68 96 -103 159 -36
63 -84 134 -108 158 -23 24 -43 46 -43 50 0 23 30 32 107 32 71 0 85 -3 90
-17z m6994 -438 c6 -27 16 -59 22 -69 9 -18 13 -16 47 23 l36 44 -22 -111
c-25 -125 -44 -285 -37 -312 4 -17 9 -15 47 14 42 31 103 62 110 55 2 -2 6
-18 9 -36 6 -29 3 -34 -37 -57 -88 -51 -164 -168 -186 -285 -6 -30 -18 -63
-27 -73 -16 -18 -18 -15 -44 57 -15 42 -37 91 -49 109 -19 31 -20 40 -10 104
24 153 -31 282 -149 349 -25 15 -47 28 -49 29 -3 2 19 85 24 93 5 6 67 -40
112 -83 24 -23 52 -58 63 -78 11 -21 24 -38 31 -38 16 0 3 143 -25 267 -13 56
-20 100 -16 97 4 -2 20 -35 35 -74 15 -38 31 -67 35 -64 15 9 29 78 36 184 l7
105 12 -100 c7 -55 19 -122 25 -150z m-6537 34 c4 -26 13 -54 19 -64 12 -15
17 -9 42 52 40 95 46 97 25 6 -25 -106 -42 -231 -38 -273 l3 -35 38 57 c38 56
140 148 165 148 6 0 12 -7 12 -15 0 -9 7 -29 15 -45 15 -28 15 -28 -29 -49
-126 -61 -193 -205 -167 -357 11 -60 10 -63 -28 -145 -22 -46 -43 -96 -46
-111 -14 -54 -41 -26 -56 57 -23 125 -105 244 -204 296 -45 24 -58 53 -37 86
9 14 96 -22 148 -62 28 -22 32 -23 36 -7 7 27 -9 167 -35 299 l-24 123 34 -40
c19 -22 38 -40 43 -40 12 0 48 159 57 250 l8 75 6 -80 c3 -44 9 -101 13 -126z
m520 -9 c40 -36 52 -76 36 -123 -35 -108 -183 -115 -227 -10 -48 115 97 215
191 133z m5582 -4 c29 -29 34 -41 34 -80 0 -57 -22 -94 -67 -113 -30 -12 -38
-12 -77 5 -80 36 -98 132 -36 194 42 42 100 40 146 -6z m-2127 -9 c6 -8 8 -17
4 -21 -4 -4 -6 -285 -4 -625 l2 -618 -26 -21 c-43 -34 -113 -42 -374 -42 -198
0 -256 -3 -284 -15 -20 -8 -42 -13 -49 -10 -10 4 -14 64 -16 277 -1 150 0 280
4 290 18 59 78 -39 72 -120 l-3 -47 56 -9 c64 -10 109 -2 109 19 0 8 -16 26
-35 41 -24 18 -38 39 -45 68 -6 22 -26 91 -45 151 -101 329 -105 346 -105 484
0 180 -27 166 324 166 268 0 283 1 331 22 60 26 69 27 84 10z m-1448 -18 c58
-20 73 -21 278 -14 249 8 304 3 339 -32 25 -25 25 -26 19 -171 -4 -116 -11
-165 -30 -232 -14 -47 -39 -141 -57 -210 -46 -186 -57 -214 -91 -239 -44 -33
-24 -53 50 -49 l56 3 -3 66 c-4 69 13 121 42 132 33 13 38 -19 39 -260 2 -131
0 -254 -3 -273 l-5 -34 -300 2 c-304 3 -357 9 -394 40 -21 17 -21 21 -22 642
-1 344 -1 631 0 638 1 16 11 15 82 -9z m3793 -3 c17 7 23 -2 34 -54 l9 -40
-38 27 c-21 16 -53 34 -71 42 -31 12 -47 26 -48 40 0 3 23 0 50 -7 28 -7 57
-11 64 -8z m-6046 2 c-3 -7 -28 -24 -57 -39 -29 -15 -61 -35 -72 -45 -22 -19
-24 -11 -13 45 6 29 10 31 48 32 22 0 50 4 61 9 29 12 37 12 33 -2z m3944 -15
c14 -13 18 -31 18 -92 0 -89 14 -147 38 -160 9 -4 40 -12 67 -15 90 -13 95
-15 95 -47 0 -35 -19 -45 -101 -54 -98 -11 -94 5 -94 -376 0 -379 -5 -360 92
-366 73 -5 111 -20 119 -45 11 -36 -26 -60 -105 -67 -39 -4 -75 -11 -80 -16
-12 -13 -31 -139 -31 -204 0 -85 16 -82 -468 -88 -391 -5 -419 -4 -436 12 -16
16 -16 19 -1 34 14 14 65 17 388 22 385 6 416 9 437 49 8 14 11 218 12 678 2
633 1 659 -18 691 -19 32 -19 33 0 47 26 18 45 18 68 -3z m-1925 -19 c3 -9 -4
-35 -16 -58 l-23 -41 4 -662 c2 -514 6 -665 16 -675 9 -9 93 -12 360 -10 370
1 435 -3 440 -29 2 -10 -6 -19 -20 -22 -27 -7 -331 -16 -616 -20 -241 -2 -232
-7 -232 112 -1 95 -13 151 -39 172 -12 10 -50 20 -91 24 -46 5 -78 14 -93 26
l-22 19 27 24 c20 18 43 25 102 31 62 5 79 11 91 28 13 18 15 73 15 335 0 392
4 382 -136 382 -68 0 -101 22 -90 58 9 26 26 33 115 42 95 10 111 26 111 114
1 79 14 146 31 157 23 14 59 10 66 -7z m1811 -54 c12 -30 15 -124 14 -643 -1
-334 -4 -612 -8 -618 -9 -14 -42 18 -65 63 -19 36 -19 65 -18 635 1 363 5 605
11 616 9 18 10 18 30 0 11 -10 27 -34 36 -53z m-1723 -587 c0 -616 0 -622 -21
-650 -12 -15 -29 -29 -38 -31 -15 -3 -16 46 -16 613 l0 617 22 39 c13 24 28
38 38 37 13 -3 15 -72 15 -625z m-2763 410 c56 -56 45 -153 -22 -188 -16 -8
-48 -15 -71 -15 -33 0 -47 6 -75 34 -28 28 -34 42 -34 75 0 85 50 135 129 127
31 -3 52 -12 73 -33z m7366 17 c67 -41 79 -130 25 -184 -35 -36 -68 -42 -109
-22 -64 30 -91 105 -59 166 31 60 85 75 143 40z m-794 -236 c3 -9 6 -39 6 -67
0 -29 11 -103 23 -164 l24 -112 -28 -52 c-16 -28 -46 -72 -66 -98 l-38 -46 -7
88 c-3 48 -16 119 -28 159 l-21 73 19 63 c19 59 86 172 103 172 4 0 10 -7 13
-16z m-5850 -27 c40 -52 77 -142 78 -189 1 -24 -6 -68 -16 -98 -9 -30 -19 -92
-23 -137 -3 -46 -8 -83 -10 -83 -9 0 -70 76 -95 118 -33 56 -34 68 -8 200 11
56 20 122 20 147 0 48 7 75 21 75 4 0 19 -15 33 -33z m5579 -57 c26 -29 58
-80 75 -123 33 -78 69 -239 73 -323 2 -47 -1 -57 -36 -103 -22 -28 -43 -51
-47 -51 -4 0 -8 17 -8 38 0 57 -27 221 -46 279 -9 29 -25 59 -34 68 -16 15
-16 13 -4 -37 15 -56 18 -129 8 -190 l-6 -37 -35 71 c-18 39 -47 91 -63 115
-24 35 -28 48 -20 68 22 58 40 161 40 231 l0 75 29 -15 c15 -8 49 -38 74 -66z
m-5253 -1 c0 -68 23 -196 42 -232 7 -14 1 -31 -27 -73 -20 -30 -49 -82 -64
-116 l-28 -61 -6 33 c-14 69 -6 174 19 235 7 18 6 18 -9 7 -35 -29 -79 -210
-89 -367 l-3 -40 -46 56 -45 56 8 84 c15 158 68 318 134 405 26 34 89 84 106
84 5 0 8 -32 8 -71z m2514 33 c3 -4 2 -39 -2 -77 -5 -55 -11 -70 -24 -73 -25
-5 -33 39 -18 96 7 26 15 50 17 55 5 9 21 9 27 -1z m-3005 -190 c26 -152 78
-259 180 -368 90 -96 151 -235 151 -346 0 -40 3 -48 19 -48 31 0 42 25 51 122
15 154 81 352 164 492 41 67 135 166 161 166 10 0 14 -55 20 -244 4 -134 4
-276 0 -314 l-7 -70 -61 -12 c-34 -7 -72 -17 -85 -24 -12 -6 -157 -139 -323
-295 l-300 -282 -34 11 c-50 17 -145 81 -184 125 -19 21 -44 62 -56 89 -26 58
-155 193 -242 253 -38 26 -50 40 -43 47 7 7 61 11 138 11 113 0 136 -3 207
-28 101 -35 204 -94 298 -169 70 -56 107 -72 107 -45 0 7 -17 49 -38 93 -45
92 -69 181 -54 196 17 17 90 -109 126 -219 33 -100 48 -51 21 65 -17 71 -60
161 -111 233 -52 72 -76 142 -79 228 -2 80 -13 96 -39 59 -39 -56 -1 -351 66
-507 l18 -43 -33 29 c-18 16 -49 39 -69 51 -27 17 -41 36 -57 80 -74 201 -74
436 -1 646 43 127 70 132 89 18z m6202 41 c59 -139 88 -329 70 -476 -15 -133
-55 -254 -93 -287 -16 -14 -50 -43 -76 -65 -31 -27 -43 -33 -37 -20 56 133 95
315 95 448 0 75 -11 107 -38 107 -15 0 -18 -10 -18 -67 0 -86 -24 -158 -80
-238 -59 -87 -80 -131 -104 -216 -37 -134 -18 -179 25 -58 27 78 49 123 82
167 61 82 44 -49 -23 -177 -33 -63 -39 -101 -16 -101 5 0 40 25 78 56 207 166
435 242 614 203 27 -6 50 -14 50 -17 -1 -4 -21 -20 -46 -36 -87 -55 -213 -185
-249 -256 -18 -37 -54 -87 -80 -112 -42 -42 -131 -97 -181 -112 -17 -5 -72 43
-305 264 -289 276 -359 330 -428 330 -58 0 -56 -8 -54 325 1 168 5 310 8 315
4 6 25 -3 50 -20 47 -32 116 -122 158 -205 57 -114 127 -349 127 -427 0 -83
29 -142 61 -122 5 3 9 24 9 47 0 108 57 243 142 334 105 113 153 206 183 349
9 44 18 87 21 97 10 31 34 18 55 -30z m-3131 22 c0 -8 -4 -15 -10 -15 -5 0
-10 7 -10 15 0 8 5 15 10 15 6 0 10 -7 10 -15z m3564 -40 c3 -8 -12 -59 -34
-112 -25 -62 -51 -156 -70 -253 -53 -268 -67 -292 -176 -320 -38 -10 -77 -21
-86 -25 -16 -6 -15 2 8 61 14 38 34 113 45 167 20 103 41 154 84 206 35 41 11
41 -32 -1 -18 -17 -34 -30 -37 -27 -2 2 -6 28 -8 58 -5 48 -2 57 26 94 47 61
117 115 182 142 69 29 90 31 98 10z m-7035 -16 c63 -28 133 -84 174 -138 32
-43 34 -50 30 -103 l-5 -58 -35 30 c-45 40 -78 42 -41 3 41 -45 67 -106 88
-213 11 -54 30 -124 42 -155 11 -30 19 -57 17 -59 -9 -9 -165 38 -177 53 -34
44 -55 104 -82 239 -31 155 -54 239 -94 336 -13 33 -22 65 -19 73 7 19 51 16
102 -8z m7241 -206 c-1 -105 -98 -301 -197 -395 -31 -29 -47 -37 -85 -40 -27
-2 -48 -1 -48 2 1 3 23 34 50 70 49 63 78 125 66 137 -3 4 -20 -4 -38 -17
l-31 -23 7 64 c15 135 16 139 45 139 44 0 94 18 151 55 67 42 80 43 80 8z
m-7492 -2 c51 -35 96 -54 147 -60 l50 -6 11 -65 c7 -36 12 -83 13 -104 l1 -39
-23 21 c-26 25 -47 29 -47 9 0 -20 67 -128 103 -164 l31 -33 -56 0 c-52 0 -58
2 -95 43 -97 105 -174 254 -189 365 -6 45 -4 52 11 52 9 0 29 -8 43 -19z
m1848 -365 c28 -28 34 -41 34 -78 0 -52 -21 -85 -66 -104 -42 -18 -87 -9 -119
24 -51 51 -44 130 14 169 50 34 96 30 137 -11z m3863 9 c42 -36 56 -83 37
-128 -19 -46 -59 -72 -110 -71 -32 1 -46 8 -73 38 -22 24 -33 46 -33 66 0 98
107 155 179 95z m-2756 -52 c28 -16 71 -19 329 -23 262 -4 299 -7 314 -22 14
-14 15 -20 4 -32 -11 -14 -52 -16 -294 -16 -340 0 -476 8 -476 26 0 19 59 84
77 84 7 0 28 -8 46 -17z m1561 -21 c30 -44 32 -57 10 -66 -20 -8 -728 -8 -748
0 -21 8 -20 40 2 50 9 5 150 11 312 14 247 4 300 8 325 22 49 26 70 22 99 -20z
m-3044 -59 c35 -20 50 -52 50 -102 0 -57 -19 -100 -51 -116 -42 -22 -67 -18
-100 14 -38 39 -40 87 -4 101 31 12 31 18 0 30 -53 20 -103 -30 -91 -92 8 -40
31 -69 77 -97 41 -25 65 -26 159 -5 61 14 84 15 134 6 158 -30 325 -167 326
-269 0 -28 -48 -66 -75 -59 -12 3 -38 1 -59 -5 -60 -17 -95 -95 -66 -150 17
-31 60 -46 146 -52 90 -6 109 -13 234 -97 126 -84 228 -141 390 -219 626 -300
1277 -358 1932 -170 304 87 611 234 866 414 71 50 114 65 185 65 82 0 137 41
137 101 0 54 -61 119 -112 119 -56 0 -93 56 -76 119 11 40 90 121 146 150 91
46 217 61 338 40 58 -10 66 -9 98 10 100 62 126 150 55 186 -20 11 -35 12 -53
5 -32 -12 -33 -18 -1 -30 34 -13 38 -78 8 -112 -28 -31 -64 -22 -120 31 -46
41 -53 53 -53 85 0 29 7 44 30 66 60 56 145 64 234 20 67 -32 637 -576 665
-633 44 -90 17 -187 -83 -294 -92 -99 -179 -126 -272 -84 -48 22 -55 30 -322
366 -190 239 -212 262 -264 289 -47 24 -70 29 -125 29 -80 0 -126 -17 -182
-68 -67 -61 -51 -114 40 -131 38 -8 84 -29 114 -53 88 -70 530 -586 551 -643
24 -63 22 -154 -4 -204 -42 -82 -118 -129 -246 -153 -49 -9 -83 -27 -205 -109
-555 -375 -1089 -578 -1726 -654 -133 -16 -571 -16 -715 0 -160 18 -382 57
-528 93 -451 111 -942 329 -1232 548 -89 67 -153 100 -281 145 -158 56 -227
161 -198 305 11 56 17 65 271 357 142 164 271 309 286 322 37 31 97 62 122 62
23 0 60 33 60 55 0 26 -69 93 -123 119 -36 18 -67 26 -105 26 -102 0 -119 -16
-413 -371 -230 -278 -269 -321 -306 -335 -46 -18 -111 -13 -173 12 -50 21
-128 101 -156 159 -27 56 -32 159 -11 208 18 41 660 642 700 655 52 16 145 14
177 -5z m2260 -63 c5 -10 10 -39 10 -64 0 -38 -4 -48 -26 -63 -23 -15 -29 -15
-52 -2 -37 20 -53 65 -38 109 19 60 79 71 106 20z m-2060 -87 c-4 -43 -9 -58
-20 -58 -11 0 -16 15 -18 59 -2 32 0 66 3 74 5 13 8 13 23 -1 14 -13 16 -27
12 -74z m4110 2 c0 -52 -12 -75 -39 -75 -13 0 -16 12 -16 60 0 48 4 62 20 74
26 19 35 5 35 -59z m79 -30 l20 -35 -24 0 c-22 0 -25 4 -25 35 0 19 2 35 4 35
2 0 13 -16 25 -35z m-4285 -10 c3 -9 0 -15 -9 -15 -9 0 -12 6 -9 15 4 8 7 15
9 15 2 0 5 -7 9 -15z m149 -201 c44 -22 97 -63 97 -75 0 -5 -9 -9 -20 -9 -25
0 -73 -23 -118 -57 -18 -14 -110 -113 -204 -221 -94 -109 -179 -205 -188 -215
-16 -18 -18 -17 -38 17 -12 20 -37 46 -56 57 l-35 20 192 232 c127 153 204
238 227 249 44 22 101 23 143 2z m4131 -27 c43 -19 68 -46 218 -236 l169 -215
-28 -14 c-15 -8 -41 -27 -58 -42 l-30 -28 -105 121 c-231 266 -286 315 -385
340 -26 7 -47 17 -48 22 -1 15 76 66 114 75 45 11 94 3 153 -23z m-748 -66
c-3 -14 -11 -50 -18 -79 -11 -46 -10 -58 6 -100 21 -54 32 -199 19 -256 -8
-35 -15 -42 -81 -78 -40 -22 -76 -38 -79 -34 -10 10 18 176 38 231 11 28 19
68 19 90 -1 37 -2 39 -15 21 -8 -11 -24 -50 -36 -88 -14 -43 -34 -81 -53 -101
l-31 -32 -3 87 c-3 102 4 120 95 244 91 122 154 165 139 95z m-2753 9 c35 -27
142 -171 171 -229 22 -42 23 -54 17 -126 l-6 -80 -31 32 c-19 20 -39 58 -53
101 -26 85 -51 113 -51 59 0 -19 6 -50 14 -69 16 -37 49 -203 44 -218 -2 -5
-40 12 -85 37 l-83 47 0 88 c0 62 6 106 21 153 21 63 21 67 5 132 -9 38 -16
74 -16 81 0 18 24 15 53 -8z m-176 -192 c18 -11 42 -33 54 -50 l22 -30 -19
-59 c-11 -32 -22 -59 -27 -59 -4 0 -25 12 -47 26 -31 21 -40 33 -40 55 0 16
-8 51 -19 78 -28 74 -3 87 76 39z m3139 19 c2 -7 -3 -31 -12 -53 -9 -21 -16
-62 -16 -89 0 -49 -1 -52 -42 -78 -53 -33 -56 -33 -56 -2 0 14 -7 42 -15 62
-23 54 -19 76 23 115 59 56 106 74 118 45z m-2656 -48 c0 -16 155 -214 226
-289 84 -89 104 -123 111 -198 5 -47 4 -54 -9 -49 -9 3 -34 11 -57 18 -49 15
-52 18 -74 89 -9 30 -39 92 -67 137 -75 121 -154 179 -99 71 16 -31 23 -67 27
-130 3 -49 2 -88 0 -88 -3 0 -26 9 -51 20 -35 15 -48 28 -56 53 -47 146 -43
310 10 373 11 13 39 8 39 -7z m2153 -26 c36 -81 28 -230 -19 -359 -12 -30 -23
-43 -48 -52 -43 -16 -43 -16 -49 16 -9 46 9 169 32 213 12 23 20 43 18 45 -30
30 -167 -179 -198 -300 -13 -51 -27 -62 -98 -73 l-34 -6 6 55 c7 73 26 108
105 193 70 76 208 255 225 292 16 36 36 28 60 -24z m-2263 -277 c0 -11 3 -32
7 -45 6 -22 5 -23 -18 -11 -31 17 -39 29 -39 61 0 23 3 26 25 21 17 -3 25 -11
25 -26z m2350 -46 c-11 -26 -37 -46 -46 -37 -2 2 -1 25 2 51 5 36 12 50 28 56
17 6 22 3 24 -17 2 -14 -2 -38 -8 -53z m-1711 -114 c6 -25 11 -63 11 -86 0
-35 -3 -41 -17 -37 -10 3 -42 11 -70 17 -29 7 -53 16 -53 22 0 39 26 102 52
123 39 33 62 21 77 -39z m1129 41 c24 -26 42 -76 42 -118 0 -24 -5 -27 -57
-38 -88 -17 -85 -20 -77 52 13 119 44 155 92 104z m-1498 -49 c0 -18 -23 -2
-32 22 -9 23 -8 23 12 5 11 -10 20 -22 20 -27z m1810 17 c0 -14 -8 -29 -21
-35 -29 -16 -31 -9 -9 28 24 38 30 40 30 7z"/>
<path d="M3007 5753 c-57 -5 -68 -21 -38 -59 20 -25 21 -39 21 -230 0 -170 -3
-209 -17 -239 -12 -24 -14 -38 -6 -46 12 -12 238 -25 275 -16 35 9 62 66 48
101 -13 35 -24 33 -49 -8 -12 -19 -28 -37 -37 -40 -31 -12 -111 -6 -124 8 -6
8 -14 57 -17 108 -5 83 -3 96 15 118 19 23 22 24 54 12 63 -26 67 -26 77 0 10
27 4 78 -10 78 -5 0 -25 -9 -46 -20 -64 -34 -98 7 -87 106 5 39 13 59 28 69
30 22 49 19 91 -15 20 -16 41 -27 46 -24 14 8 11 42 -6 74 -15 30 -17 30 -93
28 -42 -1 -99 -3 -125 -5z"/>
<path d="M4663 5754 c-3 -9 4 -26 18 -40 24 -25 24 -30 27 -242 3 -204 2 -217
-17 -243 -38 -51 -30 -59 53 -59 41 0 78 4 81 10 3 5 -4 22 -15 38 -12 16 -24
46 -26 68 -7 50 8 119 25 119 8 0 38 -40 68 -90 81 -132 118 -166 150 -134 8
8 3 22 -19 53 -49 67 -98 157 -98 179 0 11 22 44 50 72 55 59 65 86 56 149
-15 99 -79 135 -239 136 -88 0 -109 -3 -114 -16z m237 -54 c27 -27 40 -63 40
-110 0 -54 -48 -110 -95 -110 -50 0 -57 17 -53 125 3 104 9 115 61 115 15 0
36 -9 47 -20z"/>
<path d="M5323 5759 c-27 -10 -27 -11 -9 -52 9 -21 16 -85 19 -187 6 -201 -1
-271 -32 -304 -13 -13 -20 -29 -16 -35 7 -13 161 -15 169 -3 3 5 -4 21 -15 38
-17 26 -19 48 -19 242 0 200 1 216 21 243 33 47 23 64 -41 66 -30 0 -65 -3
-77 -8z"/>
<path d="M2338 5753 c-24 -6 -23 -35 1 -50 10 -7 30 -36 44 -65 26 -57 121
-332 132 -385 8 -41 49 -85 70 -77 22 9 25 18 95 276 33 121 67 232 75 248 19
37 2 53 -52 48 -42 -3 -42 -4 -27 -90 4 -26 -2 -72 -20 -145 -33 -132 -41
-153 -61 -153 -19 0 -35 32 -79 163 -39 118 -42 140 -21 177 12 22 11 27 -2
43 -12 13 -31 17 -77 16 -34 -1 -69 -3 -78 -6z"/>
<path d="M4505 3539 c-11 -4 -45 -8 -75 -8 -74 -1 -113 -26 -135 -85 -35 -91
-3 -144 148 -249 89 -62 108 -126 56 -178 -41 -41 -131 -9 -163 59 -11 22 -22
32 -34 30 -14 -3 -18 -16 -20 -67 -3 -72 5 -89 37 -72 16 9 29 8 57 -4 105
-44 210 14 228 126 11 70 -22 123 -119 186 -123 81 -152 122 -125 174 18 32
91 26 133 -11 19 -16 39 -30 45 -30 17 0 24 36 17 84 -8 48 -18 58 -50 45z"/>
<path d="M3356 3523 c-17 -49 -20 -85 -9 -96 3 -4 26 11 49 33 48 44 64 48 86
23 14 -15 16 -49 13 -234 -3 -195 -5 -219 -23 -249 -31 -50 -21 -60 63 -60 88
0 108 14 79 57 -16 25 -18 52 -19 252 0 201 2 225 17 235 14 8 23 5 48 -19 26
-25 32 -27 44 -15 8 8 16 38 18 65 3 56 2 57 -75 37 -48 -13 -216 -7 -230 7
-24 24 -45 11 -61 -36z"/>
<path d="M1571 2950 c-60 -61 -139 -267 -148 -387 -5 -63 -3 -73 10 -73 17 0
25 21 29 79 4 50 25 50 33 1 5 -31 11 -40 23 -38 15 3 18 24 22 149 5 141 7
148 40 215 19 38 37 72 38 77 8 18 -19 4 -47 -23z"/>
<path d="M680 2301 c0 -4 18 -21 41 -37 22 -15 82 -72 133 -125 97 -102 116
-110 116 -48 0 53 -207 219 -272 219 -10 0 -18 -4 -18 -9z"/>
<path d="M6370 2984 c0 -4 13 -30 29 -58 38 -67 51 -134 51 -264 0 -101 7
-132 31 -132 3 0 9 18 13 41 8 53 29 46 36 -12 11 -88 40 -95 40 -10 0 97 -86
336 -144 399 -23 26 -56 47 -56 36z"/>
<path d="M7205 2281 c-27 -16 -80 -59 -117 -95 -68 -66 -80 -92 -58 -126 7
-12 30 6 112 90 57 58 118 115 136 125 17 11 32 23 32 27 0 18 -58 6 -105 -21z"/>
<path d="M2172 1532 c22 -26 25 -37 18 -56 -15 -40 -280 -469 -308 -498 -19
-21 -32 -26 -51 -22 -28 6 -36 12 107 -79 63 -40 90 -46 52 -12 -11 10 -20 27
-20 38 0 12 34 78 76 149 l76 128 42 -25 c22 -14 80 -49 129 -77 48 -29 87
-57 87 -62 0 -13 -134 -226 -160 -253 -24 -26 -25 -27 -51 -13 -10 6 -19 7
-19 3 1 -8 191 -123 204 -123 4 0 -5 10 -20 23 -21 19 -26 29 -21 49 7 28 277
480 305 511 13 14 25 17 51 13 18 -3 31 -3 28 0 -9 10 -199 124 -206 124 -3 0
7 -11 22 -25 15 -14 27 -31 27 -38 0 -13 -105 -194 -124 -214 -8 -9 -39 6
-128 61 -65 39 -122 76 -127 81 -7 7 10 42 45 100 74 119 82 128 117 121 39
-8 27 6 -36 42 -28 17 -72 43 -97 58 l-45 28 27 -32z"/>
<path d="M5565 1367 c-55 -19 -103 -44 -221 -118 -154 -97 -144 -89 -107 -82
20 3 39 0 48 -7 14 -11 236 -362 299 -471 31 -54 32 -66 9 -92 -20 -23 -17
-21 62 29 28 17 79 46 113 63 81 41 146 101 180 166 23 43 27 62 27 135 0 77
-4 92 -37 162 -81 170 -237 260 -373 215z m99 -83 c115 -39 246 -221 246 -340
0 -30 -6 -69 -14 -87 -26 -64 -123 -137 -180 -137 -14 0 -34 9 -45 21 -11 12
-81 120 -157 241 -150 239 -148 235 -84 272 81 48 154 57 234 30z"/>
<path d="M2745 879 c-120 -143 -229 -267 -241 -276 -16 -10 -33 -13 -51 -8
-48 11 -12 -10 71 -43 75 -30 113 -37 67 -12 -12 6 -21 18 -21 28 0 21 119
172 134 171 6 0 45 -15 86 -33 l75 -32 -3 -99 c-3 -62 -9 -108 -18 -122 -12
-20 -11 -22 29 -38 119 -48 137 -54 137 -46 0 6 -9 12 -20 16 -40 13 -43 61
-26 391 19 355 19 364 8 364 -5 0 -107 -117 -227 -261z m139 -11 c-4 -56 -10
-112 -13 -124 l-6 -22 -65 26 c-36 14 -67 27 -69 28 -5 4 147 194 155 194 3 0
2 -46 -2 -102z"/>
<path d="M4950 1065 c-65 -19 -228 -80 -236 -88 -4 -4 6 -5 22 -1 21 4 34 0
46 -13 24 -26 208 -534 208 -572 0 -20 -7 -34 -21 -41 -48 -26 -5 -17 89 18
112 43 132 54 80 46 -22 -4 -38 -1 -45 8 -11 13 -93 215 -93 228 0 4 18 12 40
19 l41 12 87 -69 c168 -133 177 -136 279 -101 l68 24 -51 5 c-56 6 -106 33
-248 137 l-84 62 19 51 c44 117 2 243 -94 279 -35 14 -50 13 -107 -4z m66 -66
c38 -23 80 -101 90 -166 9 -61 -9 -98 -57 -117 -54 -22 -65 -20 -77 12 -40
100 -92 247 -92 259 0 34 87 42 136 12z"/>
<path d="M3256 1006 c17 -8 34 -22 38 -31 6 -18 -81 -445 -115 -557 -19 -65
-21 -68 -51 -68 -51 0 -27 -9 88 -35 111 -26 137 -27 84 -5 -27 11 -30 17 -30
54 1 41 33 213 42 222 3 2 23 -1 44 -8 38 -13 39 -15 80 -130 23 -65 50 -132
61 -150 22 -40 72 -66 139 -74 l49 -5 -33 17 c-41 21 -69 69 -132 224 l-50
123 59 56 c49 46 62 66 75 111 17 60 11 111 -18 155 -29 44 -62 55 -331 109
l-30 6 31 -14z m226 -95 c30 -26 33 -35 36 -100 4 -61 1 -79 -22 -124 -30 -62
-60 -82 -108 -73 -70 13 -71 15 -37 166 16 74 31 141 34 148 8 23 63 13 97
-17z"/>
<path d="M4415 928 c-3 -13 -30 -167 -60 -342 -31 -175 -60 -328 -66 -338 -6
-11 -24 -24 -40 -30 -67 -23 -12 -20 141 9 l35 6 -30 6 c-27 5 -30 10 -33 46
-1 22 3 71 10 109 15 79 14 79 133 91 l64 7 46 -92 c26 -52 44 -101 42 -111
-6 -23 3 -23 110 -7 70 10 75 12 46 20 -17 4 -42 21 -55 36 -13 16 -90 160
-173 320 -82 161 -153 292 -157 292 -4 0 -10 -10 -13 -22z m76 -273 c27 -57
49 -108 49 -113 0 -10 -129 -33 -141 -26 -3 2 2 56 12 121 10 65 18 119 19
121 2 15 19 -15 61 -103z"/>
<path d="M3660 916 c0 -3 15 -12 33 -20 20 -8 38 -25 45 -42 7 -16 54 -168
106 -338 53 -170 98 -311 101 -314 10 -10 20 12 119 258 166 412 164 407 197
419 16 5 29 12 29 15 0 4 -42 6 -92 5 -54 -1 -82 -4 -68 -8 14 -4 26 -14 28
-22 3 -17 -167 -489 -177 -489 -10 0 -143 489 -135 501 3 6 16 14 28 19 14 6
-3 9 -59 9 -44 1 -97 4 -117 7 -21 4 -38 4 -38 0z"/>
<path d="M1244 1279 c-11 -18 9 -26 54 -21 35 3 41 7 31 18 -14 17 -75 19 -85
3z"/>
<path d="M6655 1279 c-4 -6 -5 -12 -3 -14 7 -7 87 -9 94 -3 14 14 -9 28 -46
28 -21 0 -42 -5 -45 -11z"/>
</g>
</svg>
