<?xml version="1.0" standalone="no"?>
<!DOCTYPE svg PUBLIC "-//W3C//DTD SVG 20010904//EN"
 "http://www.w3.org/TR/2001/REC-SVG-20010904/DTD/svg10.dtd">
<svg version="1.0" xmlns="http://www.w3.org/2000/svg"
 width="1767.000000pt" height="462.000000pt" viewBox="0 0 1767.000000 462.000000"
 preserveAspectRatio="xMidYMid meet">

<g transform="translate(0.000000,462.000000) scale(0.100000,-0.100000)"
fill="#000000" stroke="none">
<path d="M16085 4609 c-88 -6 -301 -10 -472 -10 l-313 0 0 -28 c0 -25 6 -29
61 -45 73 -22 122 -66 138 -121 15 -55 15 -1823 0 -1880 -17 -62 -70 -110
-145 -131 -60 -18 -64 -21 -64 -48 l0 -28 223 3 c122 2 375 -1 562 -5 254 -7
366 -6 445 3 452 54 795 253 986 574 108 182 149 346 149 587 -1 217 -35 372
-116 532 -97 190 -281 363 -491 463 -250 117 -547 159 -963 134z m430 -167
c300 -64 529 -241 653 -502 33 -72 64 -171 83 -270 17 -84 16 -347 0 -430 -78
-398 -324 -648 -729 -742 -86 -20 -122 -22 -327 -21 -126 0 -250 5 -275 10
l-45 9 -3 972 c-2 780 0 974 11 977 7 3 62 9 122 14 162 14 403 5 510 -17z"/>
<path d="M3840 4558 c-20 -83 -123 -353 -204 -533 -8 -16 -31 -70 -51 -120
-86 -208 -107 -259 -178 -430 -175 -422 -281 -676 -318 -763 -21 -51 -39 -95
-39 -98 0 -4 -20 -37 -45 -74 -47 -71 -119 -128 -187 -150 -32 -10 -38 -16
-38 -39 l0 -28 325 0 325 0 0 27 c0 22 -8 30 -54 49 -70 29 -97 59 -103 113
-6 54 11 107 112 356 l78 192 425 -2 425 -3 84 -190 c130 -292 143 -347 104
-411 -16 -27 -93 -74 -120 -74 -5 0 -9 -13 -9 -29 l1 -28 396 0 397 0 2 26 c2
23 -4 28 -46 43 -66 24 -123 69 -166 130 -29 43 -386 841 -601 1343 -23 55
-76 177 -118 270 -117 265 -137 317 -167 433 l-11 42 -103 0 -104 0 -12 -52z
m253 -991 c76 -175 137 -322 137 -328 0 -5 -139 -9 -350 -9 l-350 0 19 48 c81
205 293 735 306 766 l17 39 42 -99 c24 -54 104 -242 179 -417z"/>
<path d="M6125 4599 c-82 -4 -250 -5 -372 -2 l-223 6 0 -30 c0 -27 5 -31 43
-42 66 -20 116 -58 138 -104 18 -40 19 -80 19 -962 0 -876 -1 -922 -19 -961
-25 -56 -63 -88 -127 -110 -47 -16 -54 -21 -54 -45 l0 -27 385 0 385 0 0 28
c0 24 -6 29 -45 40 -65 18 -123 64 -146 113 -17 39 -19 71 -19 455 l0 412 29
0 c54 0 175 -30 236 -59 108 -51 166 -113 375 -406 298 -418 370 -499 500
-564 102 -51 190 -66 335 -57 167 11 189 16 193 46 3 22 -2 26 -47 37 -131 31
-263 158 -501 483 -299 407 -362 485 -439 532 l-33 21 87 29 c243 79 409 224
465 406 26 82 28 230 5 315 -41 157 -140 274 -296 351 -200 98 -390 119 -874
95z m453 -159 c105 -29 167 -64 229 -126 109 -109 156 -282 122 -446 -39 -187
-185 -315 -399 -351 -82 -14 -379 -15 -422 -1 -17 5 -18 32 -18 465 0 359 3
461 13 464 77 29 368 26 475 -5z"/>
<path d="M11100 4596 c0 -35 -67 -221 -155 -431 -53 -126 -116 -277 -140 -335
-24 -58 -123 -296 -220 -530 -97 -234 -192 -461 -210 -505 -89 -217 -127 -287
-182 -335 -30 -26 -131 -80 -150 -80 -8 0 -13 -12 -13 -29 l0 -28 325 0 325 0
0 26 c-1 22 -10 30 -60 53 -77 34 -103 73 -97 143 3 47 163 471 189 502 8 10
104 13 430 13 l419 0 31 -67 c143 -317 178 -409 178 -474 0 -42 -5 -53 -34
-83 -19 -19 -51 -39 -70 -46 -30 -10 -36 -16 -36 -39 l0 -28 395 0 395 0 0 26
c0 23 -8 29 -59 49 -64 25 -125 77 -166 141 -13 22 -59 118 -101 213 -144 327
-212 484 -354 808 -79 179 -166 379 -195 445 -29 66 -81 183 -115 260 -47 109
-120 315 -120 341 0 2 -47 4 -105 4 -82 0 -105 -3 -105 -14z m150 -811 c56
-132 115 -267 130 -300 52 -116 103 -245 98 -250 -3 -3 -160 -4 -350 -3 l-346
3 164 410 c90 226 166 417 169 425 5 11 10 7 19 -15 7 -16 59 -138 116 -270z"/>
<path d="M13360 4600 c-63 -3 -231 -5 -372 -2 l-258 3 0 -29 c0 -27 4 -31 43
-40 101 -26 152 -87 162 -195 3 -39 5 -463 3 -942 l-3 -870 -24 -38 c-27 -44
-78 -80 -138 -98 -37 -10 -43 -16 -43 -40 l0 -27 390 0 390 -1 0 28 c0 25 -5
30 -45 41 -63 18 -120 57 -144 100 -20 37 -21 50 -21 459 l0 421 24 0 c51 0
177 -30 229 -55 115 -54 168 -112 397 -430 288 -401 351 -472 478 -538 118
-62 252 -80 432 -56 101 14 110 17 110 42 0 19 -8 24 -51 34 -123 30 -259 155
-455 419 -370 500 -391 525 -477 589 l-38 28 103 37 c324 114 486 326 465 610
-13 180 -97 323 -243 416 -196 126 -434 160 -914 134z m409 -155 c147 -36 269
-126 324 -238 49 -101 65 -221 42 -329 -38 -183 -151 -298 -341 -349 -67 -18
-107 -22 -265 -21 -103 0 -196 3 -208 7 l-21 6 0 464 0 463 83 10 c113 13 309
7 386 -13z"/>
<path d="M10 4570 c0 -23 7 -30 45 -45 58 -22 104 -60 121 -102 12 -27 14
-200 14 -965 0 -893 -1 -935 -19 -975 -20 -42 -76 -84 -133 -98 -22 -6 -28
-13 -28 -34 l0 -26 365 -1 365 -1 0 28 c0 23 -6 29 -37 39 -59 19 -100 48
-125 88 -23 37 -23 38 -26 485 l-3 447 665 0 666 0 0 -433 c0 -253 -4 -446
-10 -466 -14 -49 -65 -98 -122 -117 -42 -14 -48 -19 -48 -43 l0 -27 365 0 365
-1 0 27 c0 24 -7 30 -59 49 -67 24 -105 62 -121 119 -14 51 -14 1833 0 1884
16 57 54 95 121 119 52 19 59 25 59 49 l0 27 -365 0 -365 0 0 -28 c0 -24 6
-29 49 -44 66 -21 117 -78 126 -137 3 -24 5 -209 3 -413 l-3 -370 -660 0 -660
0 0 380 c0 209 4 397 8 418 11 50 63 101 126 122 45 15 51 20 51 44 l0 28
-365 0 -365 0 0 -27z"/>
<path d="M7690 4563 c0 -25 4 -33 18 -33 24 0 111 -47 145 -78 45 -42 84 -111
156 -274 37 -84 77 -173 88 -198 46 -101 254 -562 296 -655 25 -55 56 -125 70
-155 14 -30 64 -143 112 -250 109 -242 225 -500 254 -562 l21 -48 94 0 93 0
58 138 c32 75 104 245 160 377 57 132 189 445 295 695 354 838 356 842 428
915 27 26 76 60 114 78 57 27 68 36 68 57 l0 25 -330 0 -330 0 0 -26 c0 -22 7
-29 43 -43 72 -27 108 -64 114 -117 7 -64 -8 -112 -156 -470 -71 -173 -137
-332 -146 -354 -9 -22 -22 -53 -29 -70 -8 -16 -40 -93 -71 -170 -32 -77 -77
-185 -100 -240 -23 -55 -59 -143 -80 -195 -21 -52 -42 -99 -45 -103 -4 -5 -14
9 -23 30 -8 21 -26 63 -40 93 -13 30 -39 89 -57 130 -18 41 -43 98 -55 125
-13 28 -37 84 -55 125 -18 41 -43 98 -55 125 -13 28 -37 84 -55 125 -18 41
-43 98 -55 125 -13 28 -39 88 -60 135 -20 47 -43 99 -50 115 -56 121 -166 380
-176 413 -27 92 12 147 134 186 11 3 17 16 17 33 l0 28 -405 0 -405 0 0 -32z"/>
<path d="M8945 1250 c-27 -5 -215 -9 -417 -9 -311 -1 -368 -3 -368 -15 0 -8
13 -17 29 -21 16 -3 39 -17 52 -31 l24 -26 0 -497 c0 -464 -1 -499 -18 -525
-10 -15 -34 -34 -53 -42 -19 -8 -34 -20 -34 -27 0 -9 98 -12 447 -11 l448 1
12 89 c16 124 16 154 -1 154 -7 0 -19 -13 -25 -28 -17 -41 -58 -82 -105 -103
-36 -16 -68 -19 -258 -19 l-218 0 0 250 0 250 151 0 c82 0 170 -5 195 -11 45
-12 94 -56 94 -85 0 -8 9 -14 20 -14 20 0 20 6 19 150 -1 117 -4 150 -15 150
-7 0 -19 -12 -26 -27 -7 -14 -26 -36 -41 -47 -26 -19 -44 -21 -213 -24 l-184
-3 0 210 0 211 200 0 c149 0 209 -4 234 -14 32 -13 76 -62 89 -98 4 -10 13
-18 22 -18 8 0 15 8 15 18 0 9 3 63 6 120 7 115 15 107 -81 92z"/>
<path d="M10956 1239 c-145 -50 -215 -135 -224 -275 -11 -174 68 -263 369
-413 100 -50 169 -100 213 -154 27 -34 31 -46 31 -101 0 -51 -5 -70 -27 -103
-72 -108 -290 -132 -434 -48 -47 27 -98 91 -115 142 -6 18 -17 33 -25 33 -11
0 -14 -24 -14 -125 l0 -125 28 -6 c15 -3 63 -15 107 -26 112 -28 281 -35 369
-14 84 20 178 68 213 110 90 106 103 269 31 381 -50 78 -114 122 -328 227 -74
37 -151 80 -172 97 -72 61 -96 155 -59 237 32 71 100 104 212 104 132 0 242
-55 290 -145 37 -70 49 -60 49 44 0 49 3 102 6 117 l6 29 -104 14 c-57 8 -161
16 -233 17 -110 3 -139 0 -189 -17z"/>
<path d="M9400 1228 c0 -11 8 -18 19 -18 11 0 33 -12 50 -26 l31 -26 0 -507
c0 -562 3 -538 -66 -567 -19 -8 -34 -20 -34 -27 0 -11 43 -13 205 -14 142 0
205 4 205 11 0 6 -21 22 -47 36 -26 14 -53 36 -60 50 -9 18 -13 89 -13 243 l0
218 48 -6 c26 -4 72 -19 102 -33 56 -28 110 -90 274 -322 118 -165 188 -210
326 -210 47 0 95 3 108 6 26 7 30 34 4 34 -33 0 -109 57 -168 127 -32 39 -108
136 -167 216 -59 81 -123 159 -142 174 l-34 27 75 29 c151 58 231 169 221 308
-10 158 -119 258 -312 289 -35 6 -189 9 -344 8 -260 -3 -281 -4 -281 -20z
m570 -69 c104 -36 169 -123 171 -229 3 -120 -49 -200 -155 -239 -50 -18 -75
-21 -175 -19 l-116 3 0 245 0 245 40 7 c55 9 193 2 235 -13z"/>
<path d="M12420 1128 c0 -96 3 -118 14 -118 8 0 24 20 36 44 38 75 70 86 254
86 l156 0 0 -499 c0 -488 0 -499 -21 -525 -11 -14 -35 -29 -52 -34 -18 -5 -32
-15 -32 -23 0 -12 34 -14 208 -15 221 -1 247 5 166 41 -73 33 -69 4 -69 557
l0 498 159 0 c148 0 160 -1 192 -23 19 -12 44 -42 57 -65 41 -74 52 -58 52 76
l0 117 -560 0 -560 0 0 -117z"/>
<path d="M2990 1225 c0 -8 7 -15 16 -15 9 0 31 -15 50 -34 l34 -34 0 -376 c0
-395 4 -445 46 -527 80 -160 296 -238 573 -207 158 17 276 80 342 181 63 98
69 143 69 560 0 351 1 365 20 390 11 14 36 32 55 38 19 7 35 19 35 26 0 10
-37 13 -170 13 -140 0 -170 -2 -170 -14 0 -8 13 -17 30 -21 16 -4 41 -20 55
-37 l26 -31 -3 -396 c-3 -394 -3 -396 -27 -444 -55 -111 -168 -167 -335 -167
-173 0 -268 47 -323 158 l-28 57 -3 385 c-2 211 0 395 3 408 7 30 52 72 76 72
11 0 19 7 19 15 0 13 -28 15 -195 15 -167 0 -195 -2 -195 -15z"/>
<path d="M4520 1228 c1 -7 20 -22 43 -33 23 -11 48 -31 54 -45 10 -19 13 -147
13 -518 l0 -494 -29 -29 c-16 -16 -38 -29 -49 -29 -11 0 -22 -8 -24 -18 -5
-17 6 -18 158 -18 128 0 164 3 164 13 0 7 -15 19 -34 27 -68 28 -66 15 -66
476 l0 415 23 -25 c12 -14 47 -54 77 -90 30 -36 69 -81 86 -100 17 -19 141
-163 274 -320 134 -157 266 -307 294 -334 55 -52 113 -86 146 -86 20 0 20 3
20 559 0 546 0 559 20 584 11 14 36 32 55 38 19 7 35 19 35 26 0 10 -36 13
-165 13 -125 0 -165 -3 -165 -12 0 -7 18 -20 39 -29 74 -31 72 -17 69 -470
l-3 -404 -180 210 c-209 245 -304 356 -475 558 l-125 147 -127 0 c-96 0 -128
-3 -128 -12z"/>
<path d="M6130 1226 c0 -8 13 -17 30 -21 16 -4 41 -20 55 -37 l25 -30 0 -498
c0 -472 -1 -499 -19 -521 -10 -13 -34 -28 -52 -34 -19 -7 -35 -19 -37 -27 -2
-13 25 -15 203 -15 187 1 205 2 205 18 0 10 -11 20 -27 24 -16 3 -38 16 -50
27 l-23 21 0 509 c0 501 0 508 21 529 11 11 34 25 50 31 16 5 29 16 29 24 0
12 -36 14 -205 14 -170 0 -205 -2 -205 -14z"/>
<path d="M6700 1227 c0 -7 15 -18 33 -25 70 -25 62 -10 330 -607 74 -165 148
-329 164 -365 17 -36 43 -93 58 -128 l28 -63 50 3 49 3 73 170 c146 343 355
834 364 857 19 48 71 106 110 124 23 10 41 24 41 31 0 10 -37 13 -170 13 -132
0 -170 -3 -170 -13 0 -7 13 -18 30 -24 42 -16 57 -53 43 -106 -14 -51 -324
-799 -329 -794 -7 7 -335 751 -351 795 -19 55 -9 82 41 106 20 9 36 21 36 26
0 6 -85 10 -215 10 -170 0 -215 -3 -215 -13z"/>
<path d="M11830 1228 c0 -7 18 -21 40 -30 72 -30 71 -23 68 -572 -3 -468 -4
-485 -23 -506 -11 -13 -35 -29 -52 -37 -18 -7 -33 -19 -33 -26 0 -11 42 -13
205 -13 159 0 205 3 205 13 0 7 -15 19 -33 27 -19 7 -43 26 -55 41 -22 28 -22
30 -22 514 0 365 3 492 13 511 6 14 31 34 54 45 82 39 60 45 -162 45 -157 0
-205 -3 -205 -12z"/>
<path d="M13630 1228 c0 -7 19 -24 41 -38 47 -29 84 -82 283 -402 l147 -238
-3 -204 c-3 -226 -5 -233 -75 -263 -18 -7 -33 -19 -33 -26 0 -10 45 -13 200
-13 158 -1 200 2 200 12 0 8 -17 22 -38 33 -21 11 -43 31 -50 46 -8 17 -12 92
-12 228 l0 202 161 265 c155 257 209 329 277 371 17 12 32 25 32 30 0 5 -66 9
-150 9 -114 0 -150 -3 -150 -13 0 -7 10 -17 23 -22 27 -12 33 -46 16 -88 -10
-25 -243 -433 -254 -445 -1 -1 -64 99 -139 224 -86 144 -136 236 -136 254 0
27 26 60 48 60 7 0 12 7 12 15 0 13 -29 15 -200 15 -153 0 -200 -3 -200 -12z"/>
</g>
</svg>
