<?xml version="1.0" standalone="no"?>
<!DOCTYPE svg PUBLIC "-//W3C//DTD SVG 20010904//EN"
 "http://www.w3.org/TR/2001/REC-SVG-20010904/DTD/svg10.dtd">
<svg version="1.0" xmlns="http://www.w3.org/2000/svg"
 width="1000.000000pt" height="1000.000000pt" viewBox="0 0 1000.000000 1000.000000"
 preserveAspectRatio="xMidYMid meet">

<g transform="translate(0.000000,1000.000000) scale(0.100000,-0.100000)"
fill="#000000" stroke="none">
<path d="M42 6395 c3 -4 32 -13 64 -22 77 -20 150 -58 166 -85 10 -19 13 -271
13 -1265 l0 -1242 -21 -28 c-25 -34 -76 -59 -160 -80 -35 -9 -64 -20 -64 -24
0 -12 1791 -11 2005 1 382 21 630 106 800 275 162 161 231 436 175 704 -35
170 -115 297 -239 380 -61 40 -156 84 -210 96 -34 7 -34 7 58 52 215 103 311
274 311 553 0 151 -9 205 -51 307 -25 60 -46 91 -98 143 -36 36 -92 81 -124
99 -85 47 -224 89 -372 114 -126 20 -165 21 -1195 24 -585 2 -1062 1 -1058 -2z
m1727 -526 c177 -28 251 -109 251 -274 0 -118 -36 -191 -120 -244 -91 -58
-128 -64 -442 -69 l-288 -4 0 301 0 301 268 0 c147 0 296 -5 331 -11z m32
-1034 c130 -28 195 -70 241 -159 29 -56 37 -204 15 -270 -25 -72 -79 -131
-155 -167 -105 -49 -181 -59 -473 -59 l-259 0 0 335 0 335 279 0 c212 0 297
-4 352 -15z"/>
<path d="M3040 6390 c8 -5 24 -10 35 -10 36 0 141 -57 179 -96 42 -43 126
-165 631 -914 87 -129 219 -324 292 -433 l134 -198 -3 -479 c-3 -467 -3 -479
-24 -507 -26 -35 -69 -56 -156 -80 -38 -9 -68 -21 -68 -25 0 -4 333 -8 740 -8
487 0 740 3 740 10 0 6 -7 10 -14 10 -8 0 -50 11 -93 25 -54 17 -88 34 -108
55 l-30 31 -3 482 -3 482 47 70 c163 244 591 880 659 980 45 66 132 195 194
287 61 91 130 185 152 208 46 48 125 100 150 100 10 0 21 5 24 10 4 7 -210 10
-637 9 -429 -1 -629 -4 -601 -11 79 -17 104 -87 62 -171 -42 -82 -156 -264
-336 -537 -101 -151 -184 -279 -186 -285 -3 -5 -7 -8 -10 -5 -2 3 -83 122
-180 265 -282 419 -367 566 -367 632 0 43 34 80 90 97 39 12 -40 14 -640 15
-446 0 -680 -3 -670 -9z"/>
<path d="M6644 6391 c3 -4 19 -11 35 -14 47 -10 107 -70 120 -122 8 -30 11
-280 11 -814 0 -810 2 -857 47 -1016 108 -389 377 -644 803 -759 407 -110 982
-91 1341 43 384 144 621 430 695 841 16 84 18 191 21 900 2 564 7 813 15 833
13 33 76 68 162 90 32 9 61 18 64 21 3 3 -311 6 -698 6 -387 0 -701 -3 -698
-6 3 -3 32 -12 64 -21 84 -21 153 -59 164 -89 6 -15 10 -333 10 -813 0 -676
-2 -795 -15 -846 -66 -253 -254 -395 -525 -395 -277 0 -472 154 -525 415 -14
70 -15 174 -13 856 3 761 3 777 23 799 26 29 108 68 163 76 126 19 -1 24 -608
24 -373 0 -659 -4 -656 -9z"/>
</g>
</svg>
