<?xml version="1.0" standalone="no"?>
<!DOCTYPE svg PUBLIC "-//W3C//DTD SVG 20010904//EN"
 "http://www.w3.org/TR/2001/REC-SVG-20010904/DTD/svg10.dtd">
<svg version="1.0" xmlns="http://www.w3.org/2000/svg"
 width="256.000000pt" height="256.000000pt" viewBox="0 0 256.000000 256.000000"
 preserveAspectRatio="xMidYMid meet">

<g transform="translate(0.000000,256.000000) scale(0.100000,-0.100000)"
fill="#000000" stroke="none">
<path d="M0 1280 l0 -1280 1280 0 1280 0 0 1280 0 1280 -1280 0 -1280 0 0
-1280z m1465 762 c44 -12 123 -43 175 -68 79 -39 109 -61 180 -133 97 -97 145
-178 182 -306 20 -70 23 -101 22 -250 0 -140 -4 -186 -22 -257 -80 -323 -287
-488 -659 -527 -132 -14 -781 -10 -787 5 -7 19 8 32 59 51 42 15 54 25 73 63
l22 44 0 606 c0 372 -4 619 -10 641 -13 46 -37 68 -102 90 -55 18 -82 44 -61
57 6 4 199 7 430 6 396 -1 422 -2 498 -22z"/>
<path d="M994 2001 c-62 -11 -90 -33 -97 -78 -11 -65 -8 -1194 3 -1234 12 -42
58 -78 135 -104 74 -25 269 -31 365 -11 220 46 371 195 431 423 26 99 36 292
20 393 -58 370 -323 599 -711 615 -58 2 -124 1 -146 -4z"/>
</g>
</svg>
